<?xml version="1.0" encoding="utf-8"?>
<!-- Generator: Adobe Illustrator 16.0.0, SVG Export Plug-In . SVG Version: 6.00 Build 0)  -->
<!DOCTYPE svg PUBLIC "-//W3C//DTD SVG 1.1//EN" "http://www.w3.org/Graphics/SVG/1.1/DTD/svg11.dtd">
<svg version="1.1" xmlns="http://www.w3.org/2000/svg" xmlns:xlink="http://www.w3.org/1999/xlink" x="0px" y="0px"
	 width="1302.125px" height="275.72px" viewBox="0 0 1302.125 275.72" enable-background="new 0 0 1302.125 275.72"
	 xml:space="preserve">
<g id="Branco">
</g>
<g id="Verde">
	<g>
		<g>
			<path fill="#56BCB9" d="M399.092,181.412c-14.252,14.389-31.955,21.586-53.117,21.586c-21.304,0-39.01-7.197-53.115-21.586
				c-13.967-14.391-20.95-32.447-20.95-54.176c0-21.723,6.983-39.783,20.95-54.174c14.105-14.391,31.812-21.584,53.115-21.584
				c21.162,0,38.865,7.193,53.117,21.584c13.967,14.391,20.95,32.451,20.95,54.174C420.042,148.965,413.059,167.021,399.092,181.412
				z M388.299,82.797c-11.005-11.707-25.113-17.564-42.324-17.564c-17.071,0-31.107,5.857-42.112,17.564
				c-11.146,11.57-16.718,26.383-16.718,44.439c0,18.063,5.572,32.875,16.718,44.441c11.005,11.711,25.041,17.564,42.112,17.564
				c17.211,0,31.319-5.854,42.324-17.564c11.004-11.566,16.506-26.379,16.506-44.441C404.805,109.322,399.303,94.51,388.299,82.797z
				"/>
			<path fill="#56BCB9" d="M532.409,188.184c-9.454,10.443-21.727,15.66-36.822,15.66c-7.619,0-14.886-1.693-21.796-5.078
				c-5.363-2.68-10.37-7.266-15.025-13.756v47.826h18.199v12.908h-32.59v-11.217V110.309h-16.929V97.4h31.319v16.506
				c4.794-6.488,10.084-11.217,15.871-14.18c7.195-3.385,14.39-5.078,21.585-5.078c14.529,0,26.522,5.152,35.975,15.447
				c9.592,10.158,14.391,22.998,14.391,38.516C546.588,164.693,541.86,177.887,532.409,188.184z M522.463,119.195
				c-6.913-7.758-16.013-11.639-27.298-11.639c-10.441,0-19.188,3.74-26.24,11.217c-7.057,7.76-10.582,17.775-10.582,30.049
				c0,12.416,3.598,22.504,10.792,30.262c7.195,7.619,16.083,11.428,26.665,11.428c11.142,0,20.104-3.809,26.875-11.428
				c6.911-7.758,10.37-17.703,10.37-29.838C533.045,136.971,529.516,126.957,522.463,119.195z"/>
			<path fill="#56BCB9" d="M584.891,203.209c-6.633,0-11.639-1.766-15.025-5.291c-1.693-1.832-2.93-4.02-3.704-6.559
				c-0.777-2.541-1.164-5.432-1.164-8.678v-72.373h-17.776V97.4h17.776V74.967l14.39-0.211V97.4h20.951v12.908h-20.951v70.258
				c0,3.527,0.563,5.996,1.693,7.406c1.271,1.27,3.102,1.904,5.502,1.904l13.756-2.117v12.91L584.891,203.209z"/>
			<path fill="#56BCB9" d="M624.463,200.881v-9.521h-0.212v-81.051h-17.564V97.4h31.954v90.572h17.142v12.908H624.463z
				 M635.679,69.043c-2.258,1.977-4.655,2.963-7.195,2.963c-2.54,0-4.939-0.986-7.194-2.963c-1.978-2.256-2.963-4.656-2.963-7.195
				c0-2.68,0.986-5.148,2.963-7.408c2.255-1.973,4.655-2.961,7.194-2.961c2.54,0,4.937,0.988,7.195,2.961
				c1.974,2.26,2.962,4.656,2.962,7.195C638.641,64.316,637.653,66.787,635.679,69.043z"/>
			<path fill="#56BCB9" d="M803.491,200.881v-11.215v-65.814c0-4.938-1.236-8.814-3.703-11.639c-2.47-2.82-6.243-4.232-11.321-4.232
				c-5.925,0-11.851,1.623-17.776,4.867c-3.104,1.555-6.031,3.354-8.781,5.396c-2.751,2.047-5.471,4.338-8.148,6.877v75.76h-14.39
				v-77.029c0-5.359-1.27-9.311-3.809-11.85c-2.4-2.68-6.21-4.021-11.428-4.021c-5.078,0-11.005,1.623-17.776,4.867
				c-6.209,3.105-11.781,6.914-16.718,11.428v63.697l-0.07,12.908h-14.32v-11.215v-79.357h-18.2V97.4h32.589v11.426
				c4.794-3.947,9.804-7.123,15.025-9.523c6.349-3.1,13.121-4.654,20.317-4.654c6.91,0,12.623,1.555,17.14,4.654
				c3.948,2.539,7.053,6.492,9.311,11.852c1.975-1.975,4.303-3.809,6.984-5.502c2.679-1.693,5.641-3.385,8.888-5.078
				c7.477-3.949,14.672-5.926,21.585-5.926c8.604,0,15.66,2.539,21.162,7.619c5.217,5.078,7.83,11.85,7.83,20.314v65.391h15.66
				v12.908H803.491z"/>
			<path fill="#56BCB9" d="M912.266,200.881v-12.273c-2.258,1.836-4.622,3.492-7.089,4.973c-2.471,1.48-5.115,2.857-7.936,4.127
				c-6.771,3.102-14.109,4.654-22.008,4.654c-8.464,0-15.098-2.4-19.892-7.195c-4.94-4.793-7.408-11.283-7.408-19.467v-65.391
				h-17.564V97.4h31.955v76.393c0,4.941,1.269,8.678,3.809,11.217c2.678,2.682,6.349,4.021,11.004,4.021
				c5.783,0,11.989-1.693,18.623-5.08c3.243-1.693,6.206-3.525,8.887-5.502c2.679-1.975,5.218-4.09,7.619-6.35v-63.484V97.4h14.391
				v90.572h17.352v12.908H912.266z"/>
			<path fill="#5E5E5E" d="M1036.061,189.877c-8.887,7.617-19.822,11.428-32.8,11.428c-8.042,0-15.66-1.766-22.854-5.291
				c-3.671-1.832-6.951-4.09-9.841-6.771c-2.893-2.68-5.469-5.783-7.724-9.311v19.256h-9.734v-49.307h9.734v5.078
				c0,9.455,3.948,17.777,11.851,24.973c7.899,7.336,17.492,11.002,28.781,11.002c9.593,0,17.702-2.889,24.337-8.676
				c6.486-5.641,9.734-12.977,9.734-22.008c0-8.041-3.035-14.391-9.102-19.047c-6.208-4.793-16.789-8.957-31.742-12.484
				c-14.955-3.525-25.889-8.465-32.8-14.813c-6.914-6.064-10.37-14.604-10.37-25.605c0-9.875,4.021-18.201,12.063-24.973
				c8.18-6.771,18.126-10.156,29.838-10.156c3.667,0,7.265,0.211,10.793,0.633c3.524,0.424,6.91,1.344,10.157,2.752
				c3.244,1.555,6.137,3.035,8.677,4.443c2.538,1.412,5.079,3.529,7.619,6.35c1.55,1.693,2.784,3.211,3.703,4.549
				c0.915,1.344,1.869,3,2.856,4.975c0.986,1.977,1.692,4.373,2.116,7.193c0.424,2.824,0.704,5.152,0.846,6.984
				c0.14,1.834,0.213,2.893,0.213,3.174h-11.218v-2.75c0-1.129-0.143-2.609-0.422-4.445c-0.284-1.832-0.814-3.771-1.587-5.818
				c-0.777-2.043-1.768-4.055-2.964-6.031c-1.199-1.975-2.717-3.668-4.549-5.08c-3.67-2.82-7.761-4.617-12.275-5.395
				c-4.517-0.775-9.384-1.166-14.601-1.166c-8.75,0-15.944,2.402-21.585,7.195c-5.787,4.941-8.677,10.936-8.677,17.988
				c0,8.184,3.101,14.391,9.312,18.623c6.349,4.232,14.813,7.617,25.395,10.156c19.325,4.656,32.517,10.301,39.571,16.93
				c7.055,6.633,10.583,15.66,10.583,27.088C1049.395,172.809,1044.949,182.258,1036.061,189.877z"/>
			<path fill="#5E5E5E" d="M1153.085,186.914c-9.734,10.158-21.658,15.236-35.765,15.236c-14.251,0-26.102-5.078-35.552-15.236
				c-9.595-10.297-14.389-22.855-14.389-37.668c0-15.094,4.726-27.648,14.178-37.668c9.45-10.158,21.374-15.236,35.763-15.236
				c14.107,0,25.958,5.078,35.552,15.236c9.593,10.301,14.391,22.854,14.391,37.668
				C1167.263,164.059,1162.536,176.617,1153.085,186.914z M1145.256,118.561c-7.338-8.18-16.648-12.273-27.936-12.273
				c-11.286,0-20.526,4.021-27.72,12.063c-7.338,8.184-11.004,18.482-11.004,30.896c0,12.416,3.597,22.643,10.792,30.686
				c7.334,8.184,16.647,12.273,27.933,12.273c11.287,0,20.528-4.021,27.723-12.063c7.334-8.182,11.005-18.48,11.005-30.896
				C1156.048,136.832,1152.45,126.604,1145.256,118.561z"/>
			<path fill="#5E5E5E" d="M1225.246,74.756c-0.988-3.947-2.613-6.91-4.867-8.889c-2.4-2.115-5.362-3.174-8.889-3.174
				c-4.374,0-7.691,1.342-9.945,4.021c-2.4,2.824-3.597,6.914-3.597,12.273v20.104h19.68v9.523h-19.68v81.051l-0.041,9.521h-10.753
				h-0.224l0.013-9.521v-81.051h-15.448v-9.523h15.448V81.105c0-8.322,2.254-15.096,6.772-20.316
				c4.654-5.078,10.649-7.617,17.985-7.617c6.772,0,12.064,2.045,15.872,6.135c4.09,4.094,6.562,8.75,7.407,13.967L1225.246,74.756z
				"/>
			<path fill="#5E5E5E" d="M1262.703,201.516c-6.068,0-10.583-1.555-13.545-4.656c-2.962-3.1-4.443-7.828-4.443-14.178v-74.066
				h-17.777v-9.523h17.777V76.66l11.002-0.211v22.643h20.952v9.523h-20.952v71.951c0,4.094,0.706,6.912,2.118,8.465
				c1.408,1.691,3.735,2.539,6.983,2.539l11.851-1.904v9.521L1262.703,201.516z"/>
		</g>
		<g>
			<path fill="#56BCB9" d="M195.203,66.393c-8.29-3.879-17.538-6.039-27.289-6.039c-12.969,0-25.036,3.818-35.146,10.4
				c12.989,14.326,20.899,33.336,20.899,54.184c0,20.85-7.91,39.848-20.89,54.178c-3.719,4.1-7.86,7.83-12.35,11.098
				c-13.328,9.711-29.737,15.441-47.486,15.441c-0.889,0-1.78-0.01-2.66-0.051c14.549,9.07,31.737,14.309,50.146,14.309
				s35.598-5.238,50.146-14.309c9.451-5.891,17.8-13.4,24.639-22.131c12.639-16.125,20.18-36.445,20.18-58.535
				C215.393,102.85,207.852,82.521,195.203,66.393z"/>
			<path fill="#56BCB9" d="M108.079,179.127c-12.989-14.33-20.889-33.34-20.889-54.189c0-20.848,7.899-39.857,20.889-54.184
				c3.72-4.111,7.859-7.83,12.349-11.09c13.319-9.721,29.729-15.441,47.477-15.441c0.892,0,1.771,0.01,2.651,0.051
				c-14.551-9.07-31.728-14.299-50.128-14.299c-18.397,0-35.577,5.229-50.126,14.299c-9.47,5.879-17.819,13.389-24.658,22.131
				c-12.648,16.127-20.188,36.445-20.188,58.533c0,22.08,7.528,42.398,20.168,58.527c8.29,3.881,17.55,6.051,27.318,6.051
				C85.9,189.516,97.97,185.695,108.079,179.127z"/>
		</g>
	</g>
</g>
<g id="Preto">
</g>
</svg>
